HIERARCHY
ROOT Root
{
  OFFSET 0.0 0.0 0.0
  CHANNELS 6 Xposition Yposition Zposition Zrotation Yrotation Xrotation
  JOINT Hips
  {
    OFFSET 0.0 100.0 0.0
    CHANNELS 6 Xposition Yposition Zposition Zrotation Yrotation Xrotation
    JOINT Spine1
    {
      OFFSET -0.013727 5.003763 -0.053727
      CHANNELS 3 Zrotation Yrotation Xrotation
      JOINT Spine2
      {
        OFFSET -0.0 7.125301 -0.029825
        CHANNELS 3 Zrotation Yrotation Xrotation
        JOINT Chest
        {
          OFFSET -1e-06 7.550063 -0.815971
          CHANNELS 3 Zrotation Yrotation Xrotation
          JOINT Neck1
          {
            OFFSET -0.181677 26.311295 -0.553348
            CHANNELS 3 Zrotation Yrotation Xrotation
            JOINT Neck2
            {
              OFFSET -3e-06 7.709397 2.302585
              CHANNELS 3 Zrotation Yrotation Xrotation
              JOINT Head
              {
                OFFSET -5e-06 6.128916 1.953709
                CHANNELS 3 Zrotation Yrotation Xrotation
                JOINT HeadEnd
                {
                  OFFSET 0.003598 16.065403 -1.835379
                  CHANNELS 3 Zrotation Yrotation Xrotation
                }
                JOINT Jaw
                {
                  OFFSET 0.002637 0.475592 3.094941
                  CHANNELS 3 Zrotation Yrotation Xrotation
                }
                JOINT LeftEye
                {
                  OFFSET 3.206381 5.380205 7.586883
                  CHANNELS 3 Zrotation Yrotation Xrotation
                }
                JOINT RightEye
                {
                  OFFSET -3.22244 5.361869 7.558234
                  CHANNELS 3 Zrotation Yrotation Xrotation
                }
              }
            }
          }
          JOINT LeftShoulder
          {
            OFFSET 1.621652 23.237164 5.113413
            CHANNELS 3 Zrotation Yrotation Xrotation
            JOINT LeftArm
            {
              OFFSET 14.919846 2e-06 -5.502326
              CHANNELS 3 Zrotation Yrotation Xrotation
              JOINT LeftForeArm
              {
                OFFSET 28.739307 0.0 -0.002588
                CHANNELS 3 Zrotation Yrotation Xrotation
                JOINT LeftHand
                {
                  OFFSET 27.093981 -1e-06 0.002609
                  CHANNELS 3 Zrotation Yrotation Xrotation
                  JOINT LeftHandThumb1
                  {
                    OFFSET 2.276482 -1.392045 3.191413
                    CHANNELS 3 Zrotation Yrotation Xrotation
                    JOINT LeftHandThumb2
                    {
                      OFFSET 4.012836 -1.828127 1.641654
                      CHANNELS 3 Zrotation Yrotation Xrotation
                      JOINT LeftHandThumb3
                      {
                        OFFSET 2.798515 0.0 -3e-06
                        CHANNELS 3 Zrotation Yrotation Xrotation
                        JOINT LeftHandThumbEnd
                        {
                          OFFSET 3.180793 -4e-06 4e-06
                          CHANNELS 3 Zrotation Yrotation Xrotation
                        }
                      }
                    }
                  }
                  JOINT LeftHandIndex1
                  {
                    OFFSET 3.247555 -0.531998 2.296169
                    CHANNELS 3 Zrotation Yrotation Xrotation
                    JOINT LeftHandIndex2
                    {
                      OFFSET 6.364578 0.01206 0.1786
                      CHANNELS 3 Zrotation Yrotation Xrotation
                      JOINT LeftHandIndex3
                      {
                        OFFSET 3.662364 0.0 0.0
                        CHANNELS 3 Zrotation Yrotation Xrotation
                        JOINT LeftHandIndex4
                        {
                          OFFSET 2.329242 4e-06 4e-06
                          CHANNELS 3 Zrotation Yrotation Xrotation
                          JOINT LeftHandIndexEnd
                          {
                            OFFSET 2.759615 -0.180537 -0.113024
                            CHANNELS 3 Zrotation Yrotation Xrotation
                          }
                        }
                      }
                    }
                  }
                  JOINT LeftHandMiddle1
                  {
                    OFFSET 3.163495 0.240981 1.000332
                    CHANNELS 3 Zrotation Yrotation Xrotation
                    JOINT LeftHandMiddle2
                    {
                      OFFSET 6.19078 -0.259278 -1.002548
                      CHANNELS 3 Zrotation Yrotation Xrotation
                      JOINT LeftHandMiddle3
                      {
                        OFFSET 4.35652 -4e-06 -1e-06
                        CHANNELS 3 Zrotation Yrotation Xrotation
                        JOINT LeftHandMiddle4
                        {
                          OFFSET 2.996877 -8e-06 0.0
                          CHANNELS 3 Zrotation Yrotation Xrotation
                          JOINT LeftHandMiddleEnd
                          {
                            OFFSET 2.304287 -0.294569 -0.031741
                            CHANNELS 3 Zrotation Yrotation Xrotation
                          }
                        }
                      }
                    }
                  }
                  JOINT LeftHandRing1
                  {
                    OFFSET 2.882643 -0.053652 -0.322543
                    CHANNELS 3 Zrotation Yrotation Xrotation
                    JOINT LeftHandRing2
                    {
                      OFFSET 5.854541 -0.486202 -1.373841
                      CHANNELS 3 Zrotation Yrotation Xrotation
                      JOINT LeftHandRing3
                      {
                        OFFSET 4.350578 0.0 3e-06
                        CHANNELS 3 Zrotation Yrotation Xrotation
                        JOINT LeftHandRing4
                        {
                          OFFSET 2.651321 7e-06 2e-06
                          CHANNELS 3 Zrotation Yrotation Xrotation
                          JOINT LeftHandRingEnd
                          {
                            OFFSET 1.936105 0.077687 -7.1e-05
                            CHANNELS 3 Zrotation Yrotation Xrotation
                          }
                        }
                      }
                    }
                  }
                  JOINT LeftHandPinky1
                  {
                    OFFSET 2.8655 -0.310005 -1.600378
                    CHANNELS 3 Zrotation Yrotation Xrotation
                    JOINT LeftHandPinky2
                    {
                      OFFSET 5.087849 -1.331141 -1.77123
                      CHANNELS 3 Zrotation Yrotation Xrotation
                      JOINT LeftHandPinky3
                      {
                        OFFSET 3.070974 4e-06 0.0
                        CHANNELS 3 Zrotation Yrotation Xrotation
                        JOINT LeftHandPinky4
                        {
                          OFFSET 1.549672 0.0 1e-06
                          CHANNELS 3 Zrotation Yrotation Xrotation
                          JOINT LeftHandPinkyEnd
                          {
                            OFFSET 1.944893 -0.157802 0.057219
                            CHANNELS 3 Zrotation Yrotation Xrotation
                          }
                        }
                      }
                    }
                  }
                }
              }
            }
          }
          JOINT RightShoulder
          {
            OFFSET -1.380118 23.180309 5.214158
            CHANNELS 3 Zrotation Yrotation Xrotation
            JOINT RightArm
            {
              OFFSET -15.037196 1.2e-05 -5.545604
              CHANNELS 3 Zrotation Yrotation Xrotation
              JOINT RightForeArm
              {
                OFFSET -28.736639 2e-06 -0.002597
                CHANNELS 3 Zrotation Yrotation Xrotation
                JOINT RightHand
                {
                  OFFSET -27.133619 -0.0 0.002613
                  CHANNELS 3 Zrotation Yrotation Xrotation
                  JOINT RightHandThumb1
                  {
                    OFFSET -2.274032 -1.383988 3.163127
                    CHANNELS 3 Zrotation Yrotation Xrotation
                    JOINT RightHandThumb2
                    {
                      OFFSET -4.011429 -1.827466 1.640914
                      CHANNELS 3 Zrotation Yrotation Xrotation
                      JOINT RightHandThumb3
                      {
                        OFFSET -2.794935 -4e-06 -3e-06
                        CHANNELS 3 Zrotation Yrotation Xrotation
                        JOINT RightHandThumbEnd
                        {
                          OFFSET -3.183852 4e-06 1e-06
                          CHANNELS 3 Zrotation Yrotation Xrotation
                        }
                      }
                    }
                  }
                  JOINT RightHandIndex1
                  {
                    OFFSET -3.253266 -0.520057 2.282866
                    CHANNELS 3 Zrotation Yrotation Xrotation
                    JOINT RightHandIndex2
                    {
                      OFFSET -6.341917 0.012471 0.178266
                      CHANNELS 3 Zrotation Yrotation Xrotation
                      JOINT RightHandIndex3
                      {
                        OFFSET -3.654871 -8e-06 -0.0
                        CHANNELS 3 Zrotation Yrotation Xrotation
                        JOINT RightHandIndex4
                        {
                          OFFSET -2.327586 0.0 1e-06
                          CHANNELS 3 Zrotation Yrotation Xrotation
                          JOINT RightHandIndexEnd
                          {
                            OFFSET -2.76179 -0.180656 -0.113078
                            CHANNELS 3 Zrotation Yrotation Xrotation
                          }
                        }
                      }
                    }
                  }
                  JOINT RightHandMiddle1
                  {
                    OFFSET -3.168106 0.246593 1.00103
                    CHANNELS 3 Zrotation Yrotation Xrotation
                    JOINT RightHandMiddle2
                    {
                      OFFSET -6.180828 -0.258836 -1.000895
                      CHANNELS 3 Zrotation Yrotation Xrotation
                      JOINT RightHandMiddle3
                      {
                        OFFSET -4.348901 0.0 -0.0
                        CHANNELS 3 Zrotation Yrotation Xrotation
                        JOINT RightHandMiddle4
                        {
                          OFFSET -3.00024 -4e-06 -2e-06
                          CHANNELS 3 Zrotation Yrotation Xrotation
                          JOINT RightHandMiddleEnd
                          {
                            OFFSET -2.30252 -0.29437 -0.031706
                            CHANNELS 3 Zrotation Yrotation Xrotation
                          }
                        }
                      }
                    }
                  }
                  JOINT RightHandRing1
                  {
                    OFFSET -2.88569 -0.067952 -0.308858
                    CHANNELS 3 Zrotation Yrotation Xrotation
                    JOINT RightHandRing2
                    {
                      OFFSET -5.854198 -0.48613 -1.373731
                      CHANNELS 3 Zrotation Yrotation Xrotation
                      JOINT RightHandRing3
                      {
                        OFFSET -4.33881 -4e-06 -0.0
                        CHANNELS 3 Zrotation Yrotation Xrotation
                        JOINT RightHandRing4
                        {
                          OFFSET -2.654903 -4e-06 4e-06
                          CHANNELS 3 Zrotation Yrotation Xrotation
                          JOINT RightHandRingEnd
                          {
                            OFFSET -1.933568 0.077527 -5.2e-05
                            CHANNELS 3 Zrotation Yrotation Xrotation
                          }
                        }
                      }
                    }
                  }
                  JOINT RightHandPinky1
                  {
                    OFFSET -2.866425 -0.342796 -1.584145
                    CHANNELS 3 Zrotation Yrotation Xrotation
                    JOINT RightHandPinky2
                    {
                      OFFSET -5.091371 -1.332055 -1.772385
                      CHANNELS 3 Zrotation Yrotation Xrotation
                      JOINT RightHandPinky3
                      {
                        OFFSET -3.062664 -4e-06 1e-06
                        CHANNELS 3 Zrotation Yrotation Xrotation
                        JOINT RightHandPinky4
                        {
                          OFFSET -1.546529 4e-06 -2e-06
                          CHANNELS 3 Zrotation Yrotation Xrotation
                          JOINT RightHandPinkyEnd
                          {
                            OFFSET -1.945119 -0.157718 0.057211
                            CHANNELS 3 Zrotation Yrotation Xrotation
                          }
                        }
                      }
                    }
                  }
                }
              }
            }
          }
        }
      }
    }
    JOINT LeftLeg
    {
      OFFSET 10.043214 -8.434526 2.595655
      CHANNELS 3 Zrotation Yrotation Xrotation
      JOINT LeftShin
      {
        OFFSET -1e-06 -43.221752 -0.802913
        CHANNELS 3 Zrotation Yrotation Xrotation
        JOINT LeftFoot
        {
          OFFSET 1e-06 -42.155094 -3.481523
          CHANNELS 3 Zrotation Yrotation Xrotation
          JOINT LeftToeBase
          {
            OFFSET 0.0 -5.059472 13.231529
            CHANNELS 3 Zrotation Yrotation Xrotation
            JOINT LeftToeEnd
            {
              OFFSET -0.009607 -1.647619 6.513017
              CHANNELS 3 Zrotation Yrotation Xrotation
            }
          }
        }
      }
    }
    JOINT RightLeg
    {
      OFFSET -10.047278 -8.29526 2.620317
      CHANNELS 3 Zrotation Yrotation Xrotation
      JOINT RightShin
      {
        OFFSET 1e-06 -43.362206 -0.805556
        CHANNELS 3 Zrotation Yrotation Xrotation
        JOINT RightFoot
        {
          OFFSET 2e-06 -42.117393 -3.478398
          CHANNELS 3 Zrotation Yrotation Xrotation
          JOINT RightToeBase
          {
            OFFSET -0.0 -5.079609 13.284196
            CHANNELS 3 Zrotation Yrotation Xrotation
            JOINT RightToeEnd
            {
              OFFSET 0.009532 -1.634378 6.460591
              CHANNELS 3 Zrotation Yrotation Xrotation
            }
          }
        }
      }
    }
  }
}
MOTION
Frames: 4
Frame Time: 0.03333333333333333
-17.485756 0.0 296.513733 0.0 -0.0 0.0 0.0 92.649063 0.0 -0.937108 4.444008 -9.16304 -1.488097 -1.167163 4.702951 -0.333673 -3.147942 -3.360589 0.358441 -5.30913 10.915895 2.699234 1.597936 5.68275 -0.878447 0.042689 -3.672341 0.265729 -1.402445 -14.581793 -0.000315 0.001192 0.006694 0.012432 -0.06831 0.072998 0.691451 -3.832456 -10.693181 -0.675706 3.700979 -10.743534 -9.214239 -5.891702 16.985592 -46.231098 -7.509075 5.172545 -178.655243 -66.831505 178.891815 -6.112032 0.578651 6.432811 -5.871933 9.89088 0.649235 -10.938199 -0.357623 7.170399 -0.005226 8.776581 0.000519 -15.884145 18.801031 5.871042 -1.828609 2.502645 -2.52559 -10.180122 4.672623 4.627049 -20.966845 0.012499 0.015642 -21.230274 2.443472 -3.594064 0.002393 0.007856 0.011704 -1.360523 2.243232 -0.75302 -21.339058 0.582649 3.014028 -13.812377 8.5e-05 -0.006199 -23.896767 -0.25261 -0.843974 -60.518009 2.6965 -1.416958 -0.28759 1.680406 0.826244 -14.243933 0.089734 1.301751 -34.231987 -0.310537 0.976662 -20.043348 0.967136 1.22593 0.00251 -0.001757 -0.003225 -3.442799 0.784462 0.507779 -15.937661 -3.162959 2.97364 -6.333256 -0.000849 0.015353 -18.137224 3.634316 -4.885385 -0.001228 0.000385 1e-05 13.1945 -0.098409 20.190306 47.688427 -15.427641 12.956923 179.916306 82.870049 179.513351 -7.440547 7.379831 1.347005 2.255733 -5.228901 -3.094608 14.251123 -0.846809 6.992469 0.001387 -12.700046 0.010628 15.409229 -17.810223 2.987291 1.667356 -1.954969 -2.905043 4.732512 -4.164078 5.004309 11.026406 0.001446 0.006245 12.133091 -3.742784 -2.890916 -0.000103 0.00632 -0.001057 1.288942 -1.929956 -1.50754 14.82556 0.58026 3.852844 14.267468 -1.327994 -6.661673 19.685165 0.164473 -0.656902 50.010231 -0.525215 -6.165656 0.348851 -1.513028 -0.034643 20.228987 3.705006 2.293649 18.803246 0.004568 0.000905 10.763239 -0.477148 1.410827 -0.003804 0.003893 -0.004925 3.291616 0.296394 -0.611177 21.514372 11.852955 2.268174 8.154443 0.005278 0.003354 18.425365 -3.791963 -4.940178 -0.00626 -0.007775 0.009798 7.790451 5.237677 4.580403 -0.16706 -1.092441 51.669991 -2.904032 -7.090549 -14.211628 2.064211 -1.778207 -19.016863 -0.0006 0.001506 0.010189 1.185058 -12.001701 -32.503361 0.142807 0.007654 19.247147 1.328506 -5.892002 -3.000009 -1.398051 1.122752 -4.764743 0.000128 -0.000446 0.012083 
-18.597755 0.0 305.625641 0.0 -0.0 0.0 0.0 92.178032 0.0 0.887349 6.760744 -9.682915 -2.08976 -1.35968 4.119769 -0.258099 -3.468821 -3.550942 -0.532492 -6.035861 10.454904 2.589224 1.71016 6.89337 -1.159989 -0.851117 -3.628967 0.218825 -1.826849 -13.591671 -0.000166 0.0012 0.007755 0.022248 0.000506 0.035789 0.701242 -3.759071 -10.69477 -0.670382 3.761969 -10.742982 -7.365244 -6.791088 17.63361 -47.917797 -5.923143 7.050368 -178.693436 -65.693695 178.694061 -7.580395 1.088263 3.957033 -5.869526 9.846171 0.861087 -10.920479 -0.297562 7.228652 -0.019741 8.77869 0.003965 -15.876155 18.888927 5.946353 -1.85022 2.494088 -2.530797 -10.197985 4.705572 4.611174 -21.00601 0.015666 -0.009685 -21.281389 2.494458 -3.618069 -0.000287 -0.002128 -0.003129 -1.370497 2.271319 -0.741565 -21.385607 0.577164 2.984714 -13.85926 0.008633 -0.00984 -23.980183 -0.230689 -0.883545 -61.054188 2.844695 -1.620468 -0.314615 1.72103 0.817845 -14.230781 0.0697 1.287148 -34.334072 -0.265913 0.95415 -20.086571 0.9586 1.203068 -0.002001 0.01266 0.006531 -3.502831 0.855854 0.459591 -15.910572 -3.222275 3.006545 -6.36267 0.004295 0.014715 -18.183882 3.65609 -4.939346 0.000948 -0.006325 0.001947 9.215416 -1.354831 20.800474 52.113297 -18.747406 13.619648 -178.97789 80.278862 -179.133972 -7.373292 6.003836 1.70158 2.197087 -5.2158 -3.05913 14.228317 -0.886039 7.026878 -0.009074 -12.698489 0.005023 15.425926 -17.675707 2.833593 1.667372 -1.955693 -2.887571 4.738653 -4.179281 4.976352 11.034431 0.006362 0.001163 12.122831 -3.706292 -2.866824 0.00785 -0.015974 -0.005919 1.287947 -1.937362 -1.512398 14.823529 0.580061 3.85483 14.263857 -1.339552 -6.669147 19.657791 0.165952 -0.648082 49.610634 -0.479864 -6.45239 0.355858 -1.540501 -0.039306 20.23221 3.717403 2.307071 18.805258 0.010254 -0.001883 10.734073 -0.468118 1.396834 -0.003716 -0.00271 0.002616 3.28689 0.271779 -0.613022 21.496811 11.876534 2.259138 8.178704 0.008302 -0.00404 18.386173 -3.792492 -4.94781 0.001048 -0.000311 -0.001923 9.182896 4.890262 8.787286 -0.164717 -1.490012 53.410572 -4.696968 -10.939641 -8.039186 2.090168 -1.764001 -17.936878 0.001957 -0.000884 -0.005194 -2.190032 -12.699687 -30.56081 -0.002426 0.015206 7.301414 2.404261 -4.534962 -2.258596 -1.392538 1.014698 -4.314558 -0.000788 -0.001645 -0.000565 
-19.633499 0.0 314.84903 0.0 -0.0 0.0 0.0 90.689888 0.0 2.709461 9.494343 -10.519506 -2.623589 -1.371621 3.731411 -0.275848 -3.424703 -3.481162 -1.687672 -6.840348 10.289973 2.449738 1.728478 7.791681 -1.365775 -1.606801 -3.60602 0.064453 -2.704375 -13.174937 -7.5e-05 0.000468 -0.002813 0.010593 0.04553 -0.002292 0.677547 -3.709165 -10.677588 -0.674975 3.798511 -10.737781 -6.109937 -6.639843 18.438143 -48.214794 -4.77395 9.023992 -179.928864 -66.162209 179.895111 -8.168539 2.350045 3.039538 -5.922086 9.898536 0.684069 -10.934799 -0.350395 7.121068 0.022958 8.781265 0.012062 -15.530317 18.923021 6.154949 -1.840159 2.490328 -2.500579 -10.182277 4.670845 4.623831 -20.985647 -0.011289 0.035306 -21.219679 2.428147 -3.553472 -0.003749 0.001411 -0.002333 -1.356218 2.225803 -0.718272 -21.355978 0.577934 3.013255 -13.815784 -0.012811 0.002698 -23.876703 -0.275142 -0.812773 -60.843838 3.012917 -1.662751 -0.280994 1.672605 0.850983 -14.23813 0.085122 1.311664 -34.274513 -0.32127 0.992114 -20.057121 0.942164 1.22424 0.003342 0.003661 -0.00808 -3.441228 0.748415 0.535733 -15.943706 -3.13989 2.97934 -6.333337 -0.009942 0.001916 -18.134224 3.642275 -4.884915 -2.4e-05 0.001135 -0.002743 5.394815 -2.21403 20.789265 56.856403 -21.111006 13.921669 -179.279404 78.035736 -179.216675 -7.841917 4.92704 1.753482 2.247283 -5.257485 -3.113292 14.266962 -0.840875 6.976801 0.002938 -12.706211 0.028052 15.471246 -17.680197 2.713122 1.66771 -1.937275 -2.88685 4.733691 -4.176341 4.989336 11.01338 0.008633 -0.00075 12.118962 -3.715757 -2.859433 -0.007806 -0.000902 -0.005797 1.289912 -1.905168 -1.495383 14.810409 0.565177 3.844797 14.24388 -1.328086 -6.660963 19.6478 0.165727 -0.631056 49.313416 -0.682308 -6.563028 0.345922 -1.485584 -0.038872 20.220543 3.674558 2.299275 18.78713 0.007364 0.006631 10.749623 -0.481975 1.402675 0.000275 -0.000939 -0.000434 3.272608 0.341927 -0.603102 21.516005 11.812316 2.254294 8.16334 0.005501 -0.001736 18.411757 -3.7844 -4.924323 0.005699 0.006975 0.002058 9.911323 3.260264 10.840699 -0.155983 -1.711009 58.404907 -6.31397 -11.874598 -7.207214 2.014668 -1.882113 -11.487052 0.000534 -0.001813 -0.015903 -6.066471 -13.765955 -28.192875 -0.036497 0.204998 2.518294 5.030825 -3.971409 -3.667421 -1.277933 1.0533 -3.826753 -0.0002 -0.002419 -0.005437 
-20.530228 0.0 323.818146 0.0 -0.0 0.0 0.0 88.531532 0.0 3.269295 12.071768 -10.769205 -2.040834 -1.456098 3.111041 -0.263688 -3.201922 -3.491929 -2.641857 -6.946283 10.516562 2.39424 2.088231 7.714241 -1.493176 -2.950086 -3.580311 -0.185183 -3.336505 -12.430844 -9e-05 -0.001229 0.009497 -0.015715 -0.007665 -0.021891 0.589754 -3.760798 -10.59071 -0.64056 3.739364 -10.615135 -6.916318 -6.319147 18.623457 -46.788422 -4.031576 10.864821 179.358337 -68.619949 -179.533096 -8.129845 4.004062 3.648334 -5.894956 9.742793 0.706317 -10.922386 -0.400584 7.147433 -0.005412 8.790299 -0.0051 -15.388488 18.421986 6.145966 -1.864748 2.486492 -2.540166 -10.159796 4.69166 4.638458 -21.008154 -0.012055 -0.022104 -21.25317 2.457956 -3.604688 0.000515 0.000175 -0.001323 -1.3587 2.23859 -0.778764 -21.352287 0.585973 3.023389 -13.843136 -0.014068 0.005292 -23.934624 -0.262374 -0.85108 -60.710732 2.828357 -1.489603 -0.2894 1.681061 0.802555 -14.252401 0.077781 1.297424 -34.233593 -0.27922 0.970247 -20.04438 0.946769 1.218327 0.00416 -0.007858 -0.003623 -3.455097 0.795631 0.454041 -15.932296 -3.15229 3.029436 -6.351476 -0.01713 -0.00941 -18.131529 3.648631 -4.904922 -0.000205 -0.00676 -0.006102 4.715119 -2.965836 21.028105 58.392437 -22.215443 14.024157 179.000061 76.427017 179.261078 -8.541772 5.236535 1.238632 2.270791 -5.250929 -3.186038 14.311682 -0.780008 6.908421 0.006766 -12.685342 0.000982 15.288658 -17.455107 2.641219 1.661434 -1.957706 -2.873359 4.735193 -4.162218 5.005518 11.013144 0.001118 0.010296 12.098303 -3.73594 -2.847541 0.009588 0.017666 0.013213 1.290408 -1.922433 -1.476999 14.798779 0.553579 3.87467 14.240649 -1.333946 -6.651955 19.650253 0.11106 -0.633614 48.873135 -1.12388 -6.401721 0.348832 -1.508246 -0.017406 20.214933 3.673354 2.322082 18.770428 -0.011983 0.004285 10.758225 -0.470985 1.399309 0.000827 0.001086 0.000412 3.271404 0.310547 -0.568871 21.492987 11.80088 2.287303 8.151682 0.00444 0.000252 18.389568 -3.810225 -4.934551 -0.006579 -0.004265 0.000153 11.531626 1.672271 9.588048 -0.300738 -1.751861 66.01432 -5.264174 -10.597959 -11.021653 1.795249 -1.840383 -6.959354 -0.002705 0.001346 0.005836 -7.994904 -15.664496 -25.949594 0.381506 0.619758 2.721768 6.781621 -3.669091 -2.465302 -1.271861 1.197223 -4.593265 -0.000208 0.0016 -0.009376 
